<?xml version="1.0" encoding="UTF-8"?>
<svg version="1.1" xmlns="http://www.w3.org/2000/svg" width="1024" height="1024">
<path d="M0 0 C337.92 0 675.84 0 1024 0 C1024 337.92 1024 675.84 1024 1024 C686.08 1024 348.16 1024 0 1024 C0 686.08 0 348.16 0 0 Z " fill="#FEFEFE" transform="translate(0,0)"/>
<path d="M0 0 C1.98631665 2.97947498 2.68786603 5.02559244 3.59375 8.44921875 C3.89716309 9.5882666 4.20057617 10.72731445 4.51318359 11.90087891 C4.83883301 13.15046387 5.16448242 14.40004883 5.5 15.6875 C5.84573605 17.00182452 6.19160519 18.31611405 6.53759766 19.63037109 C7.70534275 24.08342513 8.85489291 28.54107708 10 33 C10.21474976 33.83601746 10.42949951 34.67203491 10.65075684 35.53338623 C12.01421561 40.84943158 13.36714817 46.16805072 14.7097168 51.4894104 C15.14895018 53.22947977 15.5895161 54.96921339 16.03149414 56.70858765 C20.21882635 73.21699765 22.38246178 88.3840364 22.3125 105.4375 C22.31034485 106.37541382 22.3081897 107.31332764 22.30596924 108.27966309 C22.25635656 121.69917578 22.07534283 134.87360357 19 148 C18.69400879 149.31025146 18.69400879 149.31025146 18.38183594 150.64697266 C13.44513798 171.09438758 6.82579638 192.00007111 -3.44140625 210.453125 C-3.85535645 211.20182861 -4.26930664 211.95053223 -4.69580078 212.72192383 C-5.49709028 214.15167259 -6.31595761 215.57177676 -7.15576172 216.97924805 C-10.36961874 222.66890829 -11.00972787 227.62380658 -9.53442383 234.01782227 C-8.92182996 235.99499947 -8.21414871 237.89403297 -7.4375 239.8125 C-7.16647461 240.49973145 -6.89544922 241.18696289 -6.61621094 241.89501953 C-2.41731726 252.21949925 2.5112753 260.25180439 11.05859375 267.55078125 C13.70953597 270.89512888 13.27184902 272.77962463 13 277 C12.4066739 279.66452647 11.76124502 282.21158137 10.98828125 284.8203125 C10.77972 285.55308914 10.57115875 286.28586578 10.35627747 287.04084778 C9.91184337 288.60017227 9.46350163 290.15838757 9.01153564 291.71554565 C7.83607971 295.76713793 6.68946856 299.82685405 5.54296875 303.88671875 C5.20531494 305.07948174 5.20531494 305.07948174 4.86083984 306.29634094 C3.12210995 312.47461123 1.55347891 318.67979856 0.125 324.9375 C-1.37226011 331.47298574 -3.02182465 337.89269865 -5.1171875 344.26953125 C-6.02174478 346.95593818 -6.02174478 346.95593818 -6.6328125 349.57421875 C-8.52364415 356.81442856 -12.96454186 359.62529486 -19.23828125 363.31713867 C-21.60339987 364.61416366 -23.98557871 365.87335346 -26.375 367.125 C-36.35127495 372.48254309 -45.72474206 378.51516975 -55 385 C-56.01449219 385.70898438 -57.02898437 386.41796875 -58.07421875 387.1484375 C-68.62080201 394.69270874 -78.8187982 402.67026199 -88.3046875 411.515625 C-90.39570174 413.44299465 -92.51181064 415.30430837 -94.66796875 417.15625 C-99.80560806 421.63750703 -104.61680246 426.43277809 -109.4375 431.25 C-110.32759766 432.12785156 -111.21769531 433.00570313 -112.13476562 433.91015625 C-122.99508844 444.74667996 -133.1819624 456.80790962 -140.69921875 470.24609375 C-143.40251807 473.89108293 -145.85948383 475.8260758 -150.39404297 476.51757812 C-151.66393066 476.52208984 -152.93381836 476.52660156 -154.2421875 476.53125 C-154.92878448 476.5350769 -155.61538147 476.53890381 -156.32278442 476.54284668 C-157.77005485 476.5455585 -159.2173749 476.53824827 -160.66455078 476.52148438 C-162.86213454 476.50012505 -165.05642552 476.52127137 -167.25390625 476.546875 C-168.66667379 476.54423031 -170.07943931 476.53910239 -171.4921875 476.53125 C-172.76433105 476.52673828 -174.03647461 476.52222656 -175.34716797 476.51757812 C-179.88608656 475.87444837 -182.21724812 474.56051483 -186 472 C-187.93359375 469.3359375 -187.93359375 469.3359375 -189.4375 466.375 C-194.33936323 457.37915301 -200.84330264 450.03398377 -207.72265625 442.49609375 C-209.2215421 440.85323259 -210.70891259 439.19977845 -212.18359375 437.53515625 C-219.54490615 429.22907648 -227.22089306 421.17803843 -235.68359375 413.98046875 C-237.53176393 412.40033 -239.34957305 410.7982381 -241.16015625 409.17578125 C-261.33561301 391.20909359 -283.71985887 377.05773646 -307.08081055 363.63085938 C-308.0531665 363.07076172 -309.02552246 362.51066406 -310.02734375 361.93359375 C-311.32273071 361.1919397 -311.32273071 361.1919397 -312.64428711 360.43530273 C-319.29874438 356.38083551 -319.29874438 356.38083551 -320.45703125 352.02734375 C-320.67866943 351.22393555 -320.90030762 350.42052734 -321.12866211 349.59277344 C-321.35432861 348.7165332 -321.57999512 347.84029297 -321.8125 346.9375 C-322.18870483 345.55159668 -322.18870483 345.55159668 -322.57250977 344.13769531 C-323.39529659 341.0952799 -324.19756216 338.04783935 -325 335 C-325.5635449 332.90192431 -326.12866588 330.80427136 -326.6953125 328.70703125 C-327.57080749 325.46508712 -328.44477721 322.2227937 -329.3125 318.97875977 C-331.70030078 310.05554297 -334.17560035 301.15849985 -336.69116211 292.27050781 C-337.46875517 289.5158162 -338.23695227 286.75875147 -339 284 C-339.21188965 283.25008789 -339.4237793 282.50017578 -339.64208984 281.72753906 C-340.72052223 277.73327504 -341.6019866 274.12129286 -341 270 C-339.09375 267.71875 -339.09375 267.71875 -336.5 265.5 C-326.61833092 256.17740696 -318.3362312 241.51613297 -317.50390625 227.8359375 C-317.6441895 220.98698464 -320.5644481 216.12249708 -323.9375 210.3125 C-330.5667158 198.23640642 -335.65773495 186.06061343 -340 173 C-340.44230957 171.68684814 -340.44230957 171.68684814 -340.89355469 170.34716797 C-351.7088997 137.59621238 -354.6562608 99.4529839 -345.99414062 65.859375 C-344.98733444 61.95083075 -344.02327942 58.03367317 -343.06608582 54.11276245 C-340.3204803 42.86938484 -337.51109235 31.64299668 -334.62469482 20.43493652 C-334.02343664 18.09135137 -333.43136857 15.74559404 -332.84033203 13.39941406 C-332.48907867 12.02917582 -332.13738399 10.6590506 -331.78515625 9.2890625 C-331.48617432 8.1129541 -331.18719238 6.9368457 -330.87915039 5.72509766 C-330 3 -330 3 -328 1 C-327.99635437 1.80908813 -327.99270874 2.61817627 -327.98895264 3.45178223 C-327.95097954 11.10195143 -327.89402215 18.75163866 -327.81609726 26.40149689 C-327.77670143 30.33376152 -327.74447465 34.26580487 -327.72900391 38.19824219 C-327.71378471 41.99811155 -327.67924763 45.79737225 -327.63169098 49.5969696 C-327.61693103 51.04166859 -327.60896209 52.4864545 -327.60811615 53.93122864 C-327.59655332 63.7831181 -326.96502955 71.55959073 -319.6875 78.9375 C-313.88865569 84.41596618 -306.9091163 88.12245092 -300 92 C-298.52987581 92.83711297 -297.05982509 93.67435496 -295.58984375 94.51171875 C-288.58765604 98.47185419 -281.54019929 102.28038224 -274.3125 105.8125 C-235.23147689 124.99510852 -191.67991524 151.99909024 -176.23339844 195.14111328 C-172.58565392 206.15403366 -170.82153406 216.38556461 -170.9375 228 C-170.94201172 228.87011719 -170.94652344 229.74023438 -170.95117188 230.63671875 C-170.9628264 232.75784293 -170.98075643 234.8789311 -171 237 C-166.38 237 -161.76 237 -157 237 C-157.03480469 235.80246094 -157.06960938 234.60492188 -157.10546875 233.37109375 C-157.70676636 203.80983796 -146.97782183 177.8921974 -126.734375 156.421875 C-112.88345974 142.05980346 -98.24457582 131.43512725 -81.16503906 121.29345703 C-79.1274711 120.07615493 -77.1045735 118.83822431 -75.0859375 117.58984375 C-67.69626589 113.03908751 -60.17652963 108.98825195 -52.38671875 105.16796875 C-23.15500497 92.4864662 -23.15500497 92.4864662 -1.84580994 70.6592865 C0.02287434 64.78401044 -0.39409573 58.45639148 -0.390625 52.34375 C-0.37562478 50.83058926 -0.35889379 49.31744477 -0.34051514 47.80432129 C-0.29703538 43.84569499 -0.27688598 39.88728947 -0.26177979 35.9284668 C-0.24213828 31.87926279 -0.20017648 27.8302948 -0.16015625 23.78125 C-0.08506442 15.85422878 -0.03464629 7.92730075 0 0 Z " fill="#2F3C4B" transform="translate(676,122)"/>
<path d="M0 0 C4.77905998 2.60675999 9.48336078 5.29203938 14.13818359 8.11523438 C22.33533798 13.05488111 30.75010797 17.49590332 39.27438354 21.83694458 C75.30134616 40.18623159 116.89026712 63.18033157 130.38720703 104.08740234 C130.58942871 104.71855957 130.79165039 105.3497168 131 106 C131.40089844 107.23363281 131.80179688 108.46726562 132.21484375 109.73828125 C135.2615758 120.23258055 135.49110131 130.66674619 135.40942383 141.55541992 C135.4173999 142.71920166 135.42537598 143.8829834 135.43359375 145.08203125 C135.42384521 146.12593018 135.41409668 147.1698291 135.40405273 148.24536133 C135.79916999 151.15659152 135.79916999 151.15659152 138.06689453 153.34106445 C141.77482161 155.43823146 144.24718658 155.48742662 148.49609375 155.4609375 C149.56284081 155.45956284 149.56284081 155.45956284 150.65113831 155.4581604 C152.14973658 155.45214016 153.6483237 155.4364414 155.14672852 155.41162109 C157.42705187 155.37516703 159.70574397 155.37060177 161.98632812 155.37109375 C171.231635 155.52837284 171.231635 155.52837284 180 153 C181.53658516 149.9068571 181.14082868 146.23688064 181.17578125 142.828125 C181.63067964 116.45626585 181.63067964 116.45626585 186 104 C186.34933594 102.96746094 186.69867187 101.93492187 187.05859375 100.87109375 C192.2196709 87.17370213 200.912854 76.33932465 211 66 C211.6703125 65.25621094 212.340625 64.51242187 213.03125 63.74609375 C225.51592433 50.29534343 242.01821592 40.68915346 258 32 C259.49176758 31.18813232 259.49176758 31.18813232 261.01367188 30.35986328 C267.58167491 26.79532398 274.16717752 23.26398043 280.75634766 19.73876953 C285.84704068 17.00988833 290.92581377 14.25943036 296 11.5 C296.86471924 11.03215088 297.72943848 10.56430176 298.62036133 10.08227539 C304.51003546 6.87593656 310.27427334 3.49025679 316 0 C310.82709949 27.10678036 286.00072138 49.34876351 267.1875 67.875 C264.98420211 70.05042645 262.78252377 72.2274348 260.58381653 74.40750122 C259.23096177 75.74835307 257.87544906 77.08653129 256.51664734 78.4213562 C240.47166169 94.2977155 225.81678478 111.32754094 225.53369141 134.68994141 C225.68816784 143.95666602 228.89093901 152.12732925 233.1953125 160.2578125 C234 162 234 162 234 165 C233.17761841 165.34611328 233.17761841 165.34611328 232.33862305 165.69921875 C216.76567673 172.30796888 216.76567673 172.30796888 203 182 C201.99259766 182.86044922 201.99259766 182.86044922 200.96484375 183.73828125 C194.01354387 190.15827158 190.65229383 198.07538969 188 207 C187.67 207.99 187.34 208.98 187 210 C186.95100794 211.89479845 186.96489375 213.79146906 187.01342773 215.6862793 C187.0393248 216.85567551 187.06522186 218.02507172 187.09190369 219.22990417 C187.12216141 220.49852798 187.15241913 221.76715179 187.18359375 223.07421875 C187.2255163 225.77147783 187.2654978 228.46869485 187.30273438 231.16601562 C187.36228942 235.41005291 187.43211854 239.65285294 187.54858398 243.89575195 C187.97587102 259.93143997 188.17015709 273.2312709 179 287 C178.07842613 288.82531484 177.18999358 290.66804296 176.34765625 292.53125 C175.96802734 293.35004639 175.58839844 294.16884277 175.19726562 295.01245117 C174.82279297 295.83334229 174.44832031 296.6542334 174.0625 297.5 C173.65064453 298.40145752 173.23878906 299.30291504 172.81445312 300.23168945 C169.12318391 308.45603451 165.93154158 316.84463697 162.86743164 325.3203125 C162.5193042 326.28066406 162.17117676 327.24101563 161.8125 328.23046875 C161.50957031 329.08020264 161.20664062 329.92993652 160.89453125 330.80541992 C160 333 160 333 158 336 C157.65324219 334.865625 157.30648437 333.73125 156.94921875 332.5625 C154.64056577 325.64599722 151.69012122 318.99160376 148.80444336 312.30126953 C147.82757106 310.03496427 146.8576878 307.76576742 145.88867188 305.49609375 C142.60690822 297.83916461 139.23137132 290.2324823 135.69921875 282.6875 C135.37307083 281.98818359 135.04692291 281.28886719 134.71089172 280.56835938 C133.40863385 277.81328067 132.12436056 275.1824896 130.4058075 272.66064453 C128.7160835 269.46265695 128.66552311 267.45624797 128.73876953 263.85546875 C128.76331711 262.02701416 128.76331711 262.02701416 128.7883606 260.16162109 C128.81952972 258.85016113 128.85069885 257.53870117 128.8828125 256.1875 C128.90113891 254.81333974 128.91736896 253.43915008 128.93161011 252.06494141 C128.99546613 246.25025365 129.09536798 240.43640328 129.21240234 234.62255859 C129.28270967 231.05716362 129.32733919 227.492126 129.35757065 223.92617798 C129.3820893 221.93376765 129.43537582 219.94177625 129.48953247 217.94995117 C129.60381828 203.81649204 124.8975587 193.30666647 115.265625 183.17578125 C106.88531005 175.20731939 95.93802788 170.05320472 85.23046875 166.0078125 C83 165 83 165 82 163 C83.04108885 160.61354992 84.13830118 158.31950299 85.3125 156 C88.1861773 150.06497093 90.40068215 144.63608315 91 138 C91.08121094 137.14277344 91.16242188 136.28554688 91.24609375 135.40234375 C92.13248837 116.73433587 80.44483689 101.60997613 68.63305664 88.34106445 C61.72048414 80.750292 54.55461223 73.46234345 47.25 66.25 C34.69362306 53.85015848 34.69362306 53.85015848 29.39599609 47.63232422 C27.56826779 45.49517987 25.62234322 43.47753858 23.6875 41.4375 C15.84352848 32.69974261 9.71542905 22.83421487 4.4375 12.375 C4.10290771 11.71226074 3.76831543 11.04952148 3.42358398 10.36669922 C1.75615128 6.94053978 0.52885687 3.78168885 0 0 Z " fill="#FBFCFC" transform="translate(354,221)"/>
<path d="M0 0 C1.05960937 -0.01224609 2.11921875 -0.02449219 3.2109375 -0.03710938 C17.66691056 -0.06401255 30.40520699 4.49640837 41.25 14.1875 C41.86488281 14.72117187 42.47976563 15.25484375 43.11328125 15.8046875 C53.24904246 25.19880765 58.85943418 37.16720818 59.6640625 50.859375 C60.31452842 69.55326414 56.71784808 82.07681058 44.30859375 96.43359375 C34.02465654 107.4239024 19.89022167 112.77423797 4.96484375 113.42578125 C-12.29625248 113.82594451 -27.64555944 109.78126455 -40.55078125 97.640625 C-52.91828941 83.84525178 -57.71187016 67.71281735 -56.91601562 49.37695312 C-55.90617579 36.05894776 -48.51590835 22.69526491 -38.68359375 13.703125 C-26.52418954 4.17211725 -15.24047431 0.00913698 0 0 Z " fill="#2E3A49" transform="translate(392.75,649.8125)"/>
<path d="M0 0 C1.42119141 0.63615234 1.42119141 0.63615234 2.87109375 1.28515625 C17.94725071 8.79186963 27.13820068 21.30361678 32.68359375 36.92578125 C36.80687826 51.57055035 34.23611601 66.71382285 27.4609375 80.0234375 C19.62528684 93.28091279 8.20621764 102.42321364 -6.3125 107.4375 C-19.7004107 110.8775527 -36.48354079 111.30735228 -49 105 C-50.27810547 104.36384766 -50.27810547 104.36384766 -51.58203125 103.71484375 C-67.17155402 95.11785654 -75.90909728 82.70320975 -81 66 C-84.76462709 52.89051796 -82.89569019 36.84306266 -76.38671875 25.0859375 C-74.69349716 22.30019377 -72.90626536 19.64363394 -71 17 C-70.29037109 16.01193359 -70.29037109 16.01193359 -69.56640625 15.00390625 C-54.06707236 -4.71054394 -22.28838744 -10.06268969 0 0 Z " fill="#2E3B4A" transform="translate(732,654)"/>
<path d="M0 0 C7.59 0 15.18 0 23 0 C23 36.3 23 72.6 23 110 C15.41 110 7.82 110 0 110 C0 95.15 0 80.3 0 65 C-16.17 65 -32.34 65 -49 65 C-49 79.85 -49 94.7 -49 110 C-56.26 110 -63.52 110 -71 110 C-71 74.03 -71 38.06 -71 1 C-63.74 1 -56.48 1 -49 1 C-49 15.52 -49 30.04 -49 45 C-32.83 45 -16.66 45 0 45 C0 30.15 0 15.3 0 0 Z " fill="#313D4C" transform="translate(290,651)"/>
<path d="M0 0 C1.88797145 1.47424931 3.71252802 3.03038684 5.5 4.625 C11.1363812 9.54775858 16.99572771 14.09765453 23 18.5625 C23.86012695 19.20340576 24.72025391 19.84431152 25.60644531 20.50463867 C28.06975608 22.33805641 30.53478715 24.16914109 33 26 C40.48929381 31.56850177 47.59274751 37.17788943 54 44 C54.845625 44.845625 55.69125 45.69125 56.5625 46.5625 C57.366875 47.366875 58.17125 48.17125 59 49 C59.49757813 49.43957031 59.99515625 49.87914062 60.5078125 50.33203125 C75.8618177 64.43629184 84.26856818 86.16274183 92.75 104.75 C93.23356461 105.80752472 93.23356461 105.80752472 93.72689819 106.88641357 C99.06459996 118.59080446 104.04249275 130.39153924 107.875 142.6875 C108.09929687 143.37521484 108.32359375 144.06292969 108.5546875 144.77148438 C110.12076646 149.75846707 110.12076646 149.75846707 109 152 C108.41734375 151.15179687 107.8346875 150.30359375 107.234375 149.4296875 C95.79052009 132.9702574 82.50324836 117.82818942 67.15234375 104.87890625 C65.38933718 103.33987511 63.69354136 101.7698571 62.00390625 100.15234375 C53.8071573 92.32503245 45.22133355 85.33679437 36.12158203 78.58642578 C34.06221343 77.04652047 32.02653335 75.48012801 29.99609375 73.90234375 C14.97282055 62.2902329 -1.35594114 53.06963491 -18 44 C-18.11786788 40.06275931 -18.18780174 36.12598239 -18.25 32.1875 C-18.28351563 31.08728516 -18.31703125 29.98707031 -18.3515625 28.85351562 C-18.47173335 18.66903586 -16.49369551 10.04326485 -9.5625 2.33984375 C-6.37076196 -0.39707162 -4.02270849 -1.75618244 0 0 Z " fill="#FBFCFB" transform="translate(390,424)"/>
<path d="M0 0 C6.05417781 2.49289675 8.65138673 6.67833115 11.390625 12.34765625 C13.07325244 16.49648762 13.30627042 20.13317182 13.28515625 24.609375 C13.28032227 26.41728516 13.28032227 26.41728516 13.27539062 28.26171875 C13.26282227 30.14310547 13.26282227 30.14310547 13.25 32.0625 C13.24548828 33.33222656 13.24097656 34.60195313 13.23632812 35.91015625 C13.22454556 39.04431836 13.20809416 42.17838541 13.1875 45.3125 C12.35943848 45.6955127 11.53137695 46.07852539 10.67822266 46.47314453 C-7.75607743 55.11394054 -24.88049775 66.7010829 -40.8125 79.3125 C-41.71613281 80.01632812 -42.61976563 80.72015625 -43.55078125 81.4453125 C-67.34805464 100.19467941 -90.9444611 120.91183443 -108.60205078 145.64453125 C-110.26111577 147.93068131 -112.02528867 150.12579437 -113.8125 152.3125 C-111.43924553 137.2582739 -105.39684017 123.63019571 -99 109.9375 C-98.3189502 108.46387017 -97.63860993 106.98991222 -96.95898438 105.515625 C-95.26745107 101.85214946 -93.56240326 98.19516396 -91.85232544 94.54031372 C-90.78025895 92.24342394 -89.7158043 89.94310669 -88.65209961 87.64233398 C-87.94793109 86.12735904 -87.24359118 84.61246374 -86.5390625 83.09765625 C-86.06215218 82.06138596 -86.06215218 82.06138596 -85.5756073 81.00418091 C-73.75711201 55.69944624 -52.74051813 37.6349172 -30.8125 21.30078125 C-27.16586758 18.58243026 -23.5442732 15.8334521 -19.9375 13.0625 C-18.8959375 12.26714844 -17.854375 11.47179687 -16.78125 10.65234375 C-14.82481234 9.11036196 -12.90596011 7.5192776 -11.03125 5.87890625 C-4.71022014 0.38608362 -4.71022014 0.38608362 0 0 Z " fill="#FAFBFB" transform="translate(638.8125,423.6875)"/>
<path d="M0 0 C8.08947015 6.63369638 12.98480787 15.24676497 14.03515625 25.71484375 C14.33356092 37.66400475 11.73768195 47.33912271 3.8203125 56.3828125 C-3.8666679 64.01347803 -12.8508932 66.37959629 -23.5 66.75 C-33.88509901 66.37047811 -40.63039958 62.89221673 -48.11328125 55.75 C-55.80156056 47.01021535 -57.82570241 36.38291812 -57.61328125 25.03515625 C-56.77301727 14.4609251 -52.1675695 7.23771346 -44.3125 0.25 C-30.70649462 -9.5511049 -13.93877884 -9.62564727 0 0 Z " fill="#FBFCFC" transform="translate(416.3125,676.75)"/>
<path d="M0 0 C8.23615981 6.16500786 14.27491192 12.97641516 17 23 C18.24526457 34.18132387 17.88131505 45.48849245 10.94140625 54.74609375 C3.78988601 63.05536431 -3.50486823 68.31787726 -14.5625 69.32421875 C-25.9772546 69.65791621 -34.13966187 67.35247099 -42.9609375 60.04296875 C-50.31157275 52.67825182 -54.06860452 42.73849744 -54.3125 32.4375 C-53.94894303 22.08339745 -51.2786222 13.71487196 -44.109375 5.953125 C-32.50774005 -4.73499538 -13.99825984 -8.70225154 0 0 Z " fill="#FBFCFC" transform="translate(726,674)"/>
<path d="M0 0 C21.74503484 -3.14234608 21.74503484 -3.14234608 28.19970703 1.62451172 C32.01714966 6.206085 34.28396096 11.61266214 36.62988281 17.05126953 C39.01678278 22.18829338 42.13346871 26.86521789 45.1875 31.625 C46.2884403 33.38597194 47.38636845 35.1488327 48.48046875 36.9140625 C48.94348389 37.6560791 49.40649902 38.3980957 49.88354492 39.16259766 C51 41 51 41 52 43 C52.66 43 53.32 43 54 43 C55.17849636 41.47030676 55.17849636 41.47030676 56.29296875 39.43359375 C56.74953857 38.64823242 57.2061084 37.86287109 57.67651367 37.05371094 C58.17513916 36.19036133 58.67376465 35.32701172 59.1875 34.4375 C60.29141936 32.61833949 61.39559699 30.79933568 62.5 28.98046875 C64.93577793 24.91383172 67.13172391 20.7905236 69.25 16.55078125 C77.39962525 1.15887768 77.39962525 1.15887768 84.11132812 -1.00146484 C91.4861054 -1.97144057 98.7034519 -1.29475839 106 0 C103.29534866 5.66207383 100.28424316 10.82257569 96.75 16 C95.68598622 17.57798227 94.62219646 19.15611562 93.55859375 20.734375 C92.98866699 21.57677734 92.41874023 22.41917969 91.83154297 23.28710938 C88.47284783 28.26202545 85.14392113 33.25679872 81.8125 38.25 C81.1721582 39.20648437 80.53181641 40.16296875 79.87207031 41.1484375 C78.58130635 43.08096325 77.30592349 45.02384013 76.04516602 46.97607422 C74 50 74 50 71.54663086 53.02783203 C63.24650085 63.62538302 63.75356386 74.35766467 63.9375 87.375 C63.93441898 89.4791766 63.92728785 91.58335134 63.91601562 93.6875 C63.88987758 98.79447265 63.94664582 103.89080341 64 109 C56.74 109 49.48 109 42 109 C42.04382813 105.92558594 42.08765625 102.85117187 42.1328125 99.68359375 C42.14123052 96.6548604 42.132437 93.62662114 42.12207031 90.59790039 C42.12399863 88.51772838 42.14339104 86.43748723 42.18164062 84.35766602 C42.42193579 70.49063264 41.24622883 61.41015317 32.29089355 50.60897827 C30.32281625 48.15595369 28.70304135 45.51214797 27.05078125 42.83984375 C26.4371875 41.87183838 25.82359375 40.90383301 25.19140625 39.90649414 C24.57136719 38.92672607 23.95132813 37.94695801 23.3125 36.9375 C17.24939093 27.39146835 10.99566338 18.00016574 4.52075195 8.72827148 C3.62876099 7.44158569 3.62876099 7.44158569 2.71875 6.12890625 C2.19216797 5.37681885 1.66558594 4.62473145 1.12304688 3.84985352 C0 2 0 2 0 0 Z " fill="#2D3A49" transform="translate(539,652)"/>
<path d="M0 0 C0.33 0 0.66 0 1 0 C1.21656915 6.55121664 0.41313024 12.62173973 -0.75 19.0625 C-0.93119385 20.07820068 -1.1123877 21.09390137 -1.29907227 22.14038086 C-7.54906019 56.24081261 -23.72153149 103.17552015 -53.25 124.328125 C-60.50278623 129.21563166 -68.07653674 133.29948144 -76 137 C-81.49807442 126.57044662 -85.09289381 117.08591622 -82.34765625 105.16796875 C-76.33580143 87.1324043 -61.51467124 74.38442641 -48.35961914 61.37817383 C-44.9800663 58.02600711 -41.80572883 54.57487871 -38.73046875 50.9453125 C-36.62869444 48.58259556 -34.38677712 46.39732206 -32.125 44.1875 C-26.99055638 39.09966253 -22.44973658 33.68969845 -18 28 C-17.25878906 27.07574219 -16.51757812 26.15148437 -15.75390625 25.19921875 C-9.56796353 17.27649488 -4.74499606 8.83937801 0 0 Z " fill="#FAFBFB" transform="translate(680,241)"/>
<path d="M0 0 C2.59865154 2.23548596 4.13213404 4.81676329 5.80200195 7.78369141 C16.02729537 25.92631668 30.84031223 40.97655334 45.55859375 55.52734375 C48.17925751 58.18155201 50.59114187 60.95203995 53.00390625 63.79296875 C55.12286952 66.13585378 57.34821352 68.32588095 59.61157227 70.52783203 C71.41185063 82.04186853 84.35866173 95.42678366 84.75 112.875 C84.66171245 121.31467364 81.62047818 128.50043806 78 136 C57.04122142 130.00714987 40.73257931 112.43323167 30.52880859 94.09350586 C28.43012339 90.26094219 26.37756578 86.40533401 24.34082031 82.53955078 C23.23958151 80.45377402 22.121254 78.37933717 20.9921875 76.30859375 C8.83533502 53.26711754 0.08783768 26.21954855 0 0 Z " fill="#FBFCFB" transform="translate(343,242)"/>
<path d="M0 0 C1.60009518 3.20019035 0.09386793 5.49329451 -1 8.8125 C-7.94184106 29.22563657 -19.90277347 41.68899455 -37 54 C-37.78246094 54.5657373 -38.56492187 55.13147461 -39.37109375 55.71435547 C-42.4933125 57.97078654 -45.61807085 60.2236409 -48.74633789 62.47167969 C-61.00873949 71.29834973 -73.16752542 80.80993827 -82.6953125 92.63671875 C-83.12585938 93.08660156 -83.55640625 93.53648437 -84 94 C-84.66 94 -85.32 94 -86 94 C-86.09968761 89.32273411 -86.17184934 84.64610125 -86.21972656 79.96801758 C-86.23970745 78.38034274 -86.26690203 76.79274021 -86.30175781 75.20532227 C-86.65962529 58.47501767 -86.65962529 58.47501767 -82 51 C-81.66419922 50.38302246 -81.32839844 49.76604492 -80.98242188 49.13037109 C-72.47680327 34.05592284 -47.89286449 27.04372669 -33.20703125 20.36328125 C-22.59710809 15.49358645 -13.19188769 10.20802703 -4 3 C-2.66851152 1.99754491 -1.33601977 0.99640803 0 0 Z " fill="#F9FAFA" transform="translate(643,373)"/>
<path d="M0 0 C3.5042886 1.56382973 6.24860574 3.68569756 9.25 6.0625 C13.78361074 9.48963632 18.35013719 12.53210309 23.30859375 15.3046875 C24.3400074 15.88282448 24.3400074 15.88282448 25.39225769 16.47264099 C34.03130974 21.22766333 43.05898931 25.12666202 52.09545898 29.05493164 C66.44468539 35.31666395 80.00334182 42.09826652 87.17297363 56.80541992 C88.53797063 60.42754775 88.49657923 63.82680586 88.390625 67.65625 C88.38496521 68.44398804 88.37930542 69.23172607 88.37347412 70.04333496 C88.35129902 72.52954034 88.30114337 75.01423928 88.25 77.5 C88.22991039 79.19789567 88.21166396 80.89581421 88.1953125 82.59375 C88.1514969 86.72973639 88.08260605 90.8646139 88 95 C85.55571776 92.56027516 83.11576298 90.11931884 80.7109375 87.640625 C70.81945571 77.51757006 59.84153645 69.35267267 48.375 61.140625 C42.84835233 57.18144895 37.38990209 53.14430418 32 49 C31.04480469 48.27425781 30.08960938 47.54851562 29.10546875 46.80078125 C14.71868025 35.52358589 3.20364563 18.27720906 0 0 Z " fill="#FAFBFB" transform="translate(379,372)"/>
<path d="M0 0 C7.92 0 15.84 0 24 0 C24.23049367 11.08674561 23.45342581 21.89370404 22.40087891 32.92114258 C22.1265302 35.79646272 21.86125989 38.67250494 21.59765625 41.54882812 C20.56280044 52.72045262 19.37462997 63.86512723 18 75 C14.04 75 10.08 75 6 75 C4.31566001 64.05179004 3.14417864 53.10742587 2.14013672 42.07885742 C1.87634172 39.20213172 1.60051092 36.3267207 1.32421875 33.45117188 C0.27869073 22.24223118 -0.18548636 11.25902194 0 0 Z " fill="#2F3C4A" transform="translate(788,652)"/>
<path d="M0 0 C15.51 0 31.02 0 47 0 C47 7.26 47 14.52 47 22 C31.49 22 15.98 22 0 22 C0 14.74 0 7.48 0 0 Z " fill="#374451" transform="translate(478,700)"/>
<path d="M0 0 C4.22993422 1.28408717 5.6019176 2.50763493 8.375 5.9375 C10.93171792 10.98648077 10.76350967 16.50273039 10 22 C8.0171377 26.03654111 5.83420139 28.6500056 2 31 C-3.62994973 32.87664991 -9.09029508 32.93749151 -14.4375 30.3125 C-18.04627165 27.05580363 -19.79987097 24.54153442 -20.43359375 19.66015625 C-20.44672069 7.57024071 -20.44672069 7.57024071 -16 3 C-11.26340266 -1.32970903 -6.08396968 -0.57903733 0 0 Z " fill="#F8F9F8" transform="translate(698,816)"/>
<path d="M0 0 C3.01125 -0.061875 6.0225 -0.12375 9.125 -0.1875 C10.06230957 -0.21481201 10.99961914 -0.24212402 11.96533203 -0.27026367 C17.05823607 -0.32070457 20.61308502 0.10575737 25 3 C26.56935594 6.13871188 26.35201103 8.53855822 26 12 C23.625 14.9375 23.625 14.9375 21 17 C20.34 17 19.68 17 19 17 C19.721875 17.99902344 20.44375 18.99804688 21.1875 20.02734375 C22.12512346 21.33064036 23.06261676 22.63403061 24 23.9375 C24.47695313 24.59685547 24.95390625 25.25621094 25.4453125 25.93554688 C29 30.88671875 29 30.88671875 29 32 C26.265625 32.40234375 26.265625 32.40234375 23 32 C21.3026982 29.83624115 20.06093376 27.93710955 18.75 25.5625 C15.87256799 20.77706649 15.87256799 20.77706649 11.19921875 17.9140625 C8.15925915 17.59443727 8.15925915 17.59443727 4 18 C4 22.62 4 27.24 4 32 C2.68 32 1.36 32 0 32 C0 21.44 0 10.88 0 0 Z " fill="#48525B" transform="translate(726,816)"/>
<path d="M0 0 C7.26 0 14.52 0 22 0 C22 7.26 22 14.52 22 22 C14.74 22 7.48 22 0 22 C0 14.74 0 7.48 0 0 Z " fill="#2C3847" transform="translate(789,739)"/>
<path d="M0 0 C1.32 0 2.64 0 4 0 C6.92183803 8.23157414 9.18130658 16.45765211 11 25 C11.176521 24.31373535 11.35304199 23.6274707 11.53491211 22.92041016 C12.33344535 19.82133442 13.13542849 16.72316179 13.9375 13.625 C14.21529297 12.54476562 14.49308594 11.46453125 14.77929688 10.3515625 C15.04677734 9.3203125 15.31425781 8.2890625 15.58984375 7.2265625 C15.95903931 5.79691162 15.95903931 5.79691162 16.33569336 4.33837891 C17 2 17 2 18 0 C19.65 0 21.3 0 23 0 C26.25291624 7.89993945 29 16.40495762 29 25 C29.66 25 30.32 25 31 25 C31.0825 23.845 31.165 22.69 31.25 21.5 C32.03684285 14.18353585 34.1274578 7.09824136 36 0 C37.65 0 39.3 0 41 0 C38.53195876 10.72547708 35.90512869 21.38391802 33 32 C31.35 32 29.7 32 28 32 C27.01530197 28.62658906 26.03823897 25.25101218 25.0625 21.875 C24.64581055 20.44800781 24.64581055 20.44800781 24.22070312 18.9921875 C22.88160306 14.3456716 21.63920547 9.80617783 21 5 C20.34 5 19.68 5 19 5 C18.97421875 5.53625 18.9484375 6.0725 18.921875 6.625 C18.50145804 12.43439793 17.41257992 17.92728811 16 23.5625 C15.73268066 24.63467773 15.73268066 24.63467773 15.45996094 25.72851562 C14.13496741 30.86503259 14.13496741 30.86503259 13 32 C11.33382885 32.04063832 9.66611905 32.042721 8 32 C6.56448854 27.06542936 5.23856935 22.11294725 4 17.125 C3.82629883 16.42826172 3.65259766 15.73152344 3.47363281 15.01367188 C2.23693858 10.02513042 1.07694407 5.025739 0 0 Z " fill="#3F4A56" transform="translate(203,816)"/>
<path d="M0 0 C1.33985898 1.66142513 2.67082708 3.33001351 4 5 C4.60199219 5.68964844 5.20398438 6.37929688 5.82421875 7.08984375 C6.45972656 7.84394531 7.09523438 8.59804688 7.75 9.375 C8.67039062 10.43847656 8.67039062 10.43847656 9.609375 11.5234375 C12.585876 16.82428478 10.85662144 22.37890216 9.3203125 27.91601562 C9.09085938 28.70685547 8.86140625 29.49769531 8.625 30.3125 C8.40328125 31.12267578 8.1815625 31.93285156 7.953125 32.76757812 C6.2632749 38.7367251 6.2632749 38.7367251 4 41 C3.64808594 40.41992188 3.29617188 39.83984375 2.93359375 39.2421875 C-0.74874054 33.4158309 -4.70633986 28.14683007 -11 25 C-9.61911617 20.22967406 -7.55892495 16.01378053 -5.30859375 11.61328125 C-3.40039215 7.80257418 -1.69096535 3.9109478 0 0 Z " fill="#F3F5F6" transform="translate(659,384)"/>
<path d="M0 0 C1.77027918 3.33754468 3.06810626 6.77056823 4.375 10.3125 C6.22642436 15.20201833 8.31824178 19.53040296 11 24 C11 24.66 11 25.32 11 26 C9.49609375 27.15625 9.49609375 27.15625 7.4375 28.5 C2.37057912 32.1308417 -0.70143003 36.78413623 -4 42 C-6.20038743 37.8346888 -7.37533763 33.58526063 -8.625 29.0625 C-8.96917969 27.86463867 -8.96917969 27.86463867 -9.3203125 26.64257812 C-11.61749412 18.39050011 -11.61749412 18.39050011 -11 15 C-9.1015625 11.9921875 -9.1015625 11.9921875 -6.625 8.875 C-5.81289063 7.84117187 -5.00078125 6.80734375 -4.1640625 5.7421875 C-3.44992187 4.83726562 -2.73578125 3.93234375 -2 3 C-1.34 2.01 -0.68 1.02 0 0 Z " fill="#F6F8F8" transform="translate(365,383)"/>
<path d="M0 0 C1.2065625 0.0309375 1.2065625 0.0309375 2.4375 0.0625 C3.87808722 3.39450731 5.31439798 6.72834213 6.75 10.0625 C7.15412109 10.99707031 7.55824219 11.93164062 7.97460938 12.89453125 C14.4375 27.92206555 14.4375 27.92206555 14.4375 32.0625 C12.125 32.0625 12.125 32.0625 9.4375 31.0625 C8.02461853 28.45198072 7.302195 25.92964656 6.4375 23.0625 C-0.4925 22.5675 -0.4925 22.5675 -7.5625 22.0625 C-7.8925 23.7125 -8.2225 25.3625 -8.5625 27.0625 C-9.19687344 28.7417238 -9.85539322 30.41258418 -10.5625 32.0625 C-12.2125 32.0625 -13.8625 32.0625 -15.5625 32.0625 C-14.11522241 27.56904767 -12.46042878 23.1853863 -10.6875 18.8125 C-10.1548572 17.49222409 -9.62230542 16.17191146 -9.08984375 14.8515625 C-8.83058105 14.20993164 -8.57131836 13.56830078 -8.30419922 12.90722656 C-6.95581199 9.55356828 -5.64073436 6.18659291 -4.32421875 2.8203125 C-3.15545671 0.12316932 -3.07193986 0.07492536 0 0 Z " fill="#3E474F" transform="translate(316.5625,815.9375)"/>
<path d="M0 0 C4.22993422 1.28408717 5.6019176 2.50763493 8.375 5.9375 C10.93171792 10.98648077 10.76350967 16.50273039 10 22 C8.0171377 26.03654111 5.83420139 28.6500056 2 31 C-3.62994973 32.87664991 -9.09029508 32.93749151 -14.4375 30.3125 C-18.04627165 27.05580363 -19.79987097 24.54153442 -20.43359375 19.66015625 C-20.44672069 7.57024071 -20.44672069 7.57024071 -16 3 C-11.26340266 -1.32970903 -6.08396968 -0.57903733 0 0 Z M-14.6171875 7.7734375 C-17.14561638 11.84463654 -16.62134649 16.37664761 -16 21 C-14.69892876 24.15189089 -13.1253323 26.43733385 -10 28 C-5.36786507 28.55512815 -2.01827873 28.6364242 2 26.125 C5.95182817 21.92618257 5.38395124 17.71271836 5.359375 12.15234375 C5.00701397 9.06152471 4.78528968 7.8912283 2.625 5.75 C-3.71144116 1.52570589 -9.35432847 2.00208967 -14.6171875 7.7734375 Z " fill="#3B4854" transform="translate(698,816)"/>
<path d="M0 0 C2.9547002 2.67330018 3.75205425 4.53403871 4.625 8.375 C2.975 8.375 1.325 8.375 -0.375 8.375 C-0.66375 7.735625 -0.9525 7.09625 -1.25 6.4375 C-2.20323451 4.22293921 -2.20323451 4.22293921 -4.375 3.375 C-9.02775976 3.0697378 -9.02775976 3.0697378 -13.375 4.375 C-13.375 6.025 -13.375 7.675 -13.375 9.375 C-12.22 9.808125 -11.065 10.24125 -9.875 10.6875 C-9.14925781 10.96335937 -8.42351562 11.23921875 -7.67578125 11.5234375 C-6.18274083 12.0760399 -4.68015799 12.60374445 -3.16796875 13.1015625 C-0.10737807 14.1350087 2.20703394 15.02036213 4.6875 17.125 C6.11464838 20.55015612 5.57215972 22.83893703 4.625 26.375 C2.35966753 29.24442113 1.10777163 30.21407612 -2.375 31.375 C-6.95426639 31.77859636 -11.04498677 31.94096308 -15.3125 30.125 C-17.44288497 28.31740063 -18.97911307 26.7994352 -20.375 24.375 C-20.375 23.055 -20.375 21.735 -20.375 20.375 C-19.055 20.375 -17.735 20.375 -16.375 20.375 C-14.6875 22.8125 -14.6875 22.8125 -13.375 25.375 C-12.38264914 26.58627778 -12.38264914 26.58627778 -10.44921875 26.5078125 C-9.66160156 26.50523437 -8.87398438 26.50265625 -8.0625 26.5 C-7.28261719 26.50257813 -6.50273437 26.50515625 -5.69921875 26.5078125 C-3.46248461 26.37999912 -1.52233021 25.99413869 0.625 25.375 C0.625 23.395 0.625 21.415 0.625 19.375 C-0.17164063 19.20484375 -0.96828125 19.0346875 -1.7890625 18.859375 C-9.02367096 17.20474435 -14.06799821 15.68200179 -19.375 10.375 C-19.8125 7.5625 -19.8125 7.5625 -19.375 4.375 C-14.07993454 -2.06494447 -7.50174067 -3.61194921 0 0 Z " fill="#37444D" transform="translate(416.375,816.625)"/>
<path d="M0 0 C7.59 0 15.18 0 23 0 C23 1.32 23 2.64 23 4 C16.73 4 10.46 4 4 4 C4 6.97 4 9.94 4 13 C9.94 13 15.88 13 22 13 C22 14.32 22 15.64 22 17 C16.06 17 10.12 17 4 17 C4 20.63 4 24.26 4 28 C10.6 28 17.2 28 24 28 C24 29.32 24 30.64 24 32 C16.08 32 8.16 32 0 32 C0 21.44 0 10.88 0 0 Z " fill="#3D4752" transform="translate(541,816)"/>
<path d="M0 0 C4.32709875 0.37302575 6.28678303 1.59534666 9.625 4.3125 C11.625 7.3125 11.625 7.3125 11.625 10.3125 C10.305 10.3125 8.985 10.3125 7.625 10.3125 C6.861875 9.4875 6.09875 8.6625 5.3125 7.8125 C2.78446345 4.98069195 2.78446345 4.98069195 -1 4.8125 C-4.32933546 5.02424195 -4.32933546 5.02424195 -6.3125 6.8125 C-6.663125 7.3075 -7.01375 7.8025 -7.375 8.3125 C-6.7414201 11.35689617 -6.7414201 11.35689617 -4.73828125 12.19140625 C-3.72314453 12.52978516 -3.72314453 12.52978516 -2.6875 12.875 C-1.96691406 13.12378906 -1.24632812 13.37257813 -0.50390625 13.62890625 C1.28488263 14.203288 3.07933566 14.7599879 4.875 15.3125 C9.7600211 17.08887131 9.7600211 17.08887131 11.625 19.3125 C12.20174622 22.40809704 12.19606436 25.21643538 11.625 28.3125 C9.74879387 30.81410818 8.38608697 31.93195652 5.625 33.3125 C-5.71858099 34.50119861 -5.71858099 34.50119861 -10.0625 31.1875 C-12.56746223 28.07322264 -13.19125695 26.26297551 -13.375 22.3125 C-12.055 22.3125 -10.735 22.3125 -9.375 22.3125 C-7.6875 24.75 -7.6875 24.75 -6.375 27.3125 C-5.34878893 28.55988223 -5.34878893 28.55988223 -3.16015625 28.4453125 C-2.26167969 28.44273437 -1.36320313 28.44015625 -0.4375 28.4375 C0.45839844 28.44007813 1.35429688 28.44265625 2.27734375 28.4453125 C4.64655555 28.46671413 4.64655555 28.46671413 6.625 27.3125 C6.625 25.3325 6.625 23.3525 6.625 21.3125 C5.58859375 20.99796875 4.5521875 20.6834375 3.484375 20.359375 C2.11437869 19.92773233 0.74459814 19.4954044 -0.625 19.0625 C-1.30691406 18.85753906 -1.98882813 18.65257812 -2.69140625 18.44140625 C-6.8547345 17.10752438 -9.68253825 15.80524005 -12.375 12.3125 C-12.9375 9.375 -12.9375 9.375 -12.375 6.3125 C-10.28704014 3.70255018 -8.59208759 1.83990462 -5.5 0.5 C-3.66623103 0.33819686 -1.83305254 0.16972709 0 0 Z " fill="#324049" transform="translate(611.375,814.6875)"/>
<path d="M0 0 C1.32 0 2.64 0 4 0 C4 4.29 4 8.58 4 13 C9.61 13 15.22 13 21 13 C21 8.71 21 4.42 21 0 C22.32 0 23.64 0 25 0 C25 10.56 25 21.12 25 32 C23.68 32 22.36 32 21 32 C21 27.05 21 22.1 21 17 C15.39 17 9.78 17 4 17 C4 21.95 4 26.9 4 32 C2.68 32 1.36 32 0 32 C0 21.44 0 10.88 0 0 Z " fill="#3A424E" transform="translate(496,816)"/>
<path d="M0 0 C1.32 0 2.64 0 4 0 C4 4.29 4 8.58 4 13 C9.61 13 15.22 13 21 13 C21 8.71 21 4.42 21 0 C22.32 0 23.64 0 25 0 C25 10.56 25 21.12 25 32 C23.68 32 22.36 32 21 32 C21 27.05 21 22.1 21 17 C15.39 17 9.78 17 4 17 C4 21.95 4 26.9 4 32 C2.68 32 1.36 32 0 32 C0 21.44 0 10.88 0 0 Z " fill="#39424E" transform="translate(261,816)"/>
<path d="M0 0 C8.25 0 16.5 0 25 0 C25 1.32 25 2.64 25 4 C21.7 4 18.4 4 15 4 C15 13.24 15 22.48 15 32 C13.35 32 11.7 32 10 32 C10 22.76 10 13.52 10 4 C6.7 4 3.4 4 0 4 C0 2.68 0 1.36 0 0 Z " fill="#45505A" transform="translate(341,816)"/>
<path d="M0 0 C8.25 0 16.5 0 25 0 C25 1.32 25 2.64 25 4 C21.7 4 18.4 4 15 4 C15 13.24 15 22.48 15 32 C13.35 32 11.7 32 10 32 C10 22.76 10 13.52 10 4 C6.7 4 3.4 4 0 4 C0 2.68 0 1.36 0 0 Z " fill="#444D59" transform="translate(638,816)"/>
<path d="M0 0 C8.25 0 16.5 0 25 0 C25 1.32 25 2.64 25 4 C21.7 4 18.4 4 15 4 C15 13.24 15 22.48 15 32 C13.35 32 11.7 32 10 32 C10 22.76 10 13.52 10 4 C6.7 4 3.4 4 0 4 C0 2.68 0 1.36 0 0 Z " fill="#424D58" transform="translate(454,816)"/>
<path d="M0 0 C2.234375 -0.3359375 2.234375 -0.3359375 5 0 C7.203125 2.3359375 7.203125 2.3359375 9.25 5.375 C10.27867187 6.87160156 10.27867187 6.87160156 11.328125 8.3984375 C13 11 13 11 14 13 C15.29318256 11.3970551 16.58449156 9.79259858 17.875 8.1875 C18.59429688 7.29417969 19.31359375 6.40085937 20.0546875 5.48046875 C22.07940706 2.96429047 22.07940706 2.96429047 24 0 C26.625 -0.1875 26.625 -0.1875 29 0 C27.91751309 1.70886979 26.83396706 3.41706871 25.75 5.125 C25.14671875 6.07632813 24.5434375 7.02765625 23.921875 8.0078125 C22 11 22 11 19.8125 13.875 C17.66681467 17.57445747 17.33892863 20.70343869 17.25 24.875 C17.20552734 25.90753906 17.20552734 25.90753906 17.16015625 26.9609375 C17.09019464 28.64001626 17.04274789 30.32000812 17 32 C15.35 32 13.7 32 12 32 C12.05542969 31.1028125 12.11085938 30.205625 12.16796875 29.28125 C12.23090799 17.09621296 7.27702162 10.42296375 0 1 C0 0.67 0 0.34 0 0 Z " fill="#3D4452" transform="translate(764,816)"/>
<path d="M0 0 C10.125 0 10.125 0 15 1 C15 1.33 15 1.66 15 2 C11.04 2 7.08 2 3 2 C3 5.96 3 9.92 3 14 C10.92 13.505 10.92 13.505 19 13 C19 14.65 19 16.3 19 18 C20.43423092 20.24240866 21.83050249 22.20448954 23.5 24.25 C28 29.92567568 28 29.92567568 28 31 C25.265625 31.40234375 25.265625 31.40234375 22 31 C20.3026982 28.83624115 19.06093376 26.93710955 17.75 24.5625 C14.87256799 19.77706649 14.87256799 19.77706649 10.19921875 16.9140625 C7.15925915 16.59443727 7.15925915 16.59443727 3 17 C3 21.29 3 25.58 3 30 C2.01 30 1.02 30 0 30 C0 20.1 0 10.2 0 0 Z " fill="#263640" transform="translate(727,817)"/>
<path d="M0 0 C2.91927604 1.3961755 4.72202996 2.72202996 7 5 C7.5625 7.625 7.5625 7.625 7 11 C5.38283792 13.19562476 3.63041538 15.11945091 1.7265625 17.0703125 C0.03129415 18.96502419 -0.98121862 20.68458778 -2 23 C-3.32 23 -4.64 23 -6 23 C-5.875 20.3125 -5.875 20.3125 -5 17 C-2 14.5 -2 14.5 1 12 C1.96298724 8.82437198 1.96298724 8.82437198 2 6 C-1.21302289 3.85798474 -2.26709281 3.34674124 -6 4 C-7.03013277 5.64821244 -8.03114628 7.31503702 -9 9 C-10.32 9 -11.64 9 -13 9 C-13.3125 6.75 -13.3125 6.75 -13 4 C-9.23693268 -0.35104659 -5.43774823 -0.93564494 0 0 Z " fill="#354048" transform="translate(818,816)"/>
<path d="M0 0 C7.59 0 15.18 0 23 0 C23 1.32 23 2.64 23 4 C16.4 4 9.8 4 3 4 C3 6.64 3 9.28 3 12 C2.67 12.66 2.34 13.32 2 14 C1.76759495 16.71426141 1.58091198 19.40633767 1.4375 22.125 C1.293125 24.72375 1.14875 27.3225 1 30 C8.26 30 15.52 30 23 30 C23 30.33 23 30.66 23 31 C15.41 31 7.82 31 0 31 C0 20.77 0 10.54 0 0 Z " fill="#2F3944" transform="translate(541,816)"/>
<path d="M0 0 C1.32 0 2.64 0 4 0 C4 4.62 4 9.24 4 14 C9.61 14 15.22 14 21 14 C17.2632157 16.49118953 15.25548181 16.2065226 10.8125 16.125 C8.564375 16.08375 6.31625 16.0425 4 16 C4 21.28 4 26.56 4 32 C2.68 32 1.36 32 0 32 C0 21.44 0 10.88 0 0 Z " fill="#2A3643" transform="translate(496,816)"/>
<path d="M0 0 C2.29141286 -0.05384521 4.58318188 -0.09272087 6.875 -0.125 C8.78925781 -0.15980469 8.78925781 -0.15980469 10.7421875 -0.1953125 C14 0 14 0 16 2 C16.3125 5 16.3125 5 16 8 C12.36804504 10.42130331 10.61650652 10.21022785 6.3125 10.125 C5.13300781 10.10695313 3.95351563 10.08890625 2.73828125 10.0703125 C1.83464844 10.04710937 0.93101562 10.02390625 0 10 C0 6.7 0 3.4 0 0 Z " fill="#F9FAFA" transform="translate(731,820)"/>
<path d="M0 0 C-0.49658297 5.66104589 -1.54510684 9.87674471 -4 15 C-0.04 15 3.92 15 8 15 C8 15.99 8 16.98 8 18 C3.38 18 -1.24 18 -6 18 C-6.33 19.65 -6.66 21.3 -7 23 C-7.63437344 24.6792238 -8.29289322 26.35008418 -9 28 C-10.65 28 -12.3 28 -14 28 C-12.52535871 23.42790642 -10.84987801 18.9571895 -9.0625 14.5 C-8.81048828 13.86191406 -8.55847656 13.22382812 -8.29882812 12.56640625 C-3.27483544 0 -3.27483544 0 0 0 Z " fill="#383F48" transform="translate(315,820)"/>
<path d="M0 0 C0.73863281 0.10699219 1.47726562 0.21398437 2.23828125 0.32421875 C1.15579434 2.03308854 0.07224831 3.74128746 -1.01171875 5.44921875 C-1.91664063 6.87621094 -1.91664063 6.87621094 -2.83984375 8.33203125 C-4.76171875 11.32421875 -4.76171875 11.32421875 -6.94921875 14.19921875 C-9.09490408 17.89867622 -9.42279012 21.02765744 -9.51171875 25.19921875 C-9.54136719 25.88757813 -9.57101562 26.5759375 -9.6015625 27.28515625 C-9.67152411 28.96423501 -9.71897086 30.64422687 -9.76171875 32.32421875 C-11.41171875 32.32421875 -13.06171875 32.32421875 -14.76171875 32.32421875 C-14.76171875 27.70421875 -14.76171875 23.08421875 -14.76171875 18.32421875 C-14.43171875 18.32421875 -14.10171875 18.32421875 -13.76171875 18.32421875 C-13.76171875 22.61421875 -13.76171875 26.90421875 -13.76171875 31.32421875 C-12.77171875 31.32421875 -11.78171875 31.32421875 -10.76171875 31.32421875 C-10.76171875 26.37421875 -10.76171875 21.42421875 -10.76171875 16.32421875 C-11.42171875 16.32421875 -12.08171875 16.32421875 -12.76171875 16.32421875 C-11.32494205 12.2938759 -9.40116064 9.01382313 -6.94921875 5.51171875 C-6.28277344 4.53589844 -5.61632812 3.56007813 -4.9296875 2.5546875 C-2.76171875 0.32421875 -2.76171875 0.32421875 0 0 Z " fill="#535B65" transform="translate(790.76171875,815.67578125)"/>
<path d="M0 0 C5.69974592 -0.34198476 10.18325317 -0.47253841 15 3 C18.88144406 8.2093065 19.45024551 11.58400142 19 18 C17.68 18.33 16.36 18.66 15 19 C14.90203125 18.32453125 14.8040625 17.6490625 14.703125 16.953125 C13.79703686 11.44892166 13.79703686 11.44892166 11.375 6.5 C9.04891086 5.03089107 7.45712866 4.53833692 4.8125 3.9375 C3.554375 3.628125 2.29625 3.31875 1 3 C0.67 2.01 0.34 1.02 0 0 Z " fill="#36444F" transform="translate(689,816)"/>
<path d="M0 0 C0 2.31 0 4.62 0 7 C0.66 7 1.32 7 2 7 C1.61121946 12.44292758 -0.06769752 15.23866719 -4 19 C-6.36348683 20.02760297 -8.44684661 20.49938169 -11 21 C-11.33 20.34 -11.66 19.68 -12 19 C-10.17331351 17.17331351 -8.41720054 15.54208614 -6.375 13.9375 C-3.39142949 10.24729437 -3.36837696 7.73804327 -3.23828125 3.109375 C-3.12033203 2.06523438 -3.12033203 2.06523438 -3 1 C-1 0 -1 0 0 0 Z " fill="#34434C" transform="translate(706,827)"/>
<path d="M0 0 C1.68178661 2.52267991 2.90106742 4.81091823 4.125 7.5625 C4.47820312 8.34753906 4.83140625 9.13257813 5.1953125 9.94140625 C6 12 6 12 6 14 C2.37 14 -1.26 14 -5 14 C-4.23539233 10.17696167 -3.52385218 7.61606762 -1.9375 4.1875 C-1.39416016 3.00220703 -1.39416016 3.00220703 -0.83984375 1.79296875 C-0.56269531 1.20128906 -0.28554688 0.60960937 0 0 Z " fill="#E1E3E7" transform="translate(316,821)"/>
<path d="M0 0 C0.99 0 1.98 0 3 0 C3.05794812 4.27077656 3.09357874 8.54145236 3.125 12.8125 C3.14175781 14.02744141 3.15851563 15.24238281 3.17578125 16.49414062 C3.18222656 17.65751953 3.18867188 18.82089844 3.1953125 20.01953125 C3.20578613 21.09307861 3.21625977 22.16662598 3.22705078 23.27270508 C3 26 3 26 1 29 C1.66 29.33 2.32 29.66 3 30 C2.01 30 1.02 30 0 30 C0 20.1 0 10.2 0 0 Z " fill="#252F3E" transform="translate(261,817)"/>
<path d="M0 0 C0.99 0 1.98 0 3 0 C4.86655737 2.27808182 6.53548082 4.51249609 8.1875 6.9375 C8.65091797 7.59685547 9.11433594 8.25621094 9.59179688 8.93554688 C13 13.82950571 13 13.82950571 13 15 C10.3046875 15.40625 10.3046875 15.40625 7 15 C5.03474425 12.81237587 3.63224623 10.96593685 2.125 8.5 C1.7228125 7.87996094 1.320625 7.25992188 0.90625 6.62109375 C-0.08131301 5.09272242 -1.04323314 3.54783616 -2 2 C-1.34 1.34 -0.68 0.68 0 0 Z " fill="#3F4A54" transform="translate(742,833)"/>
<path d="M0 0 C0.165 0.598125 0.33 1.19625 0.5 1.8125 C2.81949372 5.19509501 6.20840613 5.76867051 10 7 C12.4375 7.875 12.4375 7.875 14 9 C14.3849434 10.65550822 14.72232428 12.32316218 15 14 C12.8727242 13.3827904 10.74823143 12.75598201 8.625 12.125 C6.84996094 11.60292969 6.84996094 11.60292969 5.0390625 11.0703125 C2 10 2 10 0 8 C-1.105817 4.98413546 -0.97687451 3.03916514 0 0 Z " fill="#404E5C" transform="translate(401,822)"/>
<path d="M0 0 C0.99 0.33 1.98 0.66 3 1 C3 5.62 3 10.24 3 15 C2.67 15 2.34 15 2 15 C1.67 20.28 1.34 25.56 1 31 C1.99 31.33 2.98 31.66 4 32 C2.68 32 1.36 32 0 32 C0 21.44 0 10.88 0 0 Z " fill="#353F4A" transform="translate(496,816)"/>
<path d="M0 0 C0 3.9630046 -1.27346349 4.75603761 -3.9375 7.625 C-5.15566406 8.93984375 -5.15566406 8.93984375 -6.3984375 10.28125 C-10.20042145 14.25449449 -14.06994535 18.15356353 -18 22 C-18.66 21.67 -19.32 21.34 -20 21 C-13.80281523 13.54084305 -6.89583408 6.802507 0 0 Z " fill="#3B4451" transform="translate(623,286)"/>
<path d="M0 0 C0.33 0.66 0.66 1.32 1 2 C1.66 2 2.32 2 3 2 C3 6.95 3 11.9 3 17 C2.01 17 1.02 17 0 17 C-0.06058594 16.09636719 -0.12117187 15.19273437 -0.18359375 14.26171875 C-0.26738281 13.08222656 -0.35117187 11.90273438 -0.4375 10.6875 C-0.51871094 9.51574219 -0.59992187 8.34398437 -0.68359375 7.13671875 C-0.8867371 3.97409042 -0.8867371 3.97409042 -2 1 C-1.34 0.67 -0.68 0.34 0 0 Z " fill="#2D3946" transform="translate(777,830)"/>
<path d="M0 0 C5.70939788 -0.45675183 8.55127459 0.37894444 13 4 C15 7 15 7 15 10 C11 10 11 10 9.296875 8.50390625 C8.53117188 7.54291016 8.53117188 7.54291016 7.75 6.5625 C7.22921875 5.92441406 6.7084375 5.28632812 6.171875 4.62890625 C5 3 5 3 5 2 C3.35 1.67 1.7 1.34 0 1 C0 0.67 0 0.34 0 0 Z " fill="#404952" transform="translate(608,815)"/>
<path d="M0 0 C1.65 0 3.3 0 5 0 C6.625 2.75 6.625 2.75 8 6 C7.1875 8.375 7.1875 8.375 6 10 C5.67 8.68 5.34 7.36 5 6 C4.34 6.66 3.68 7.32 3 8 C2.01 8 1.02 8 0 8 C-0.66 7.01 -1.32 6.02 -2 5 C-1.125 2.3125 -1.125 2.3125 0 0 Z " fill="#3C4450" transform="translate(314,816)"/>
<path d="M0 0 C0.90105469 0.02707031 1.80210937 0.05414062 2.73046875 0.08203125 C3.76107422 0.13423828 3.76107422 0.13423828 4.8125 0.1875 C5.1425 1.1775 5.4725 2.1675 5.8125 3.1875 C4.79929687 3.38666016 4.79929687 3.38666016 3.765625 3.58984375 C2.42757812 3.85474609 2.42757812 3.85474609 1.0625 4.125 C0.18078125 4.29902344 -0.7009375 4.47304688 -1.609375 4.65234375 C-2.88554688 4.91724609 -2.88554688 4.91724609 -4.1875 5.1875 C-5.30898438 5.40599609 -5.30898438 5.40599609 -6.453125 5.62890625 C-7.02546875 5.81324219 -7.5978125 5.99757813 -8.1875 6.1875 C-8.5175 6.8475 -8.8475 7.5075 -9.1875 8.1875 C-8.83539956 5.58195677 -8.54364134 3.67148695 -6.96875 1.53125 C-4.55565742 -0.28915317 -2.98564534 -0.11632384 0 0 Z " fill="#303D46" transform="translate(609.1875,815.8125)"/>
<path d="M0 0 C0.33 0 0.66 0 1 0 C1.2876744 3.73976724 1.45876509 6.20214767 -0.4375 9.5 C-4.31796664 11.77149267 -7.71897773 10.84156848 -12 10 C-10.01621892 8.99157795 -8.0851689 8.03193834 -6 7.25 C-3.10660735 5.44162959 -1.79632254 2.84933921 0 0 Z " fill="#2D3B4A" transform="translate(622,836)"/>
<path d="M0 0 C1.6875 1.4375 1.6875 1.4375 3 4 C2.35087445 7.14284955 1.23221253 10.04268993 0 13 C-1.65 13 -3.3 13 -5 13 C-3.58192622 8.52761347 -1.88695626 4.28853694 0 0 Z " fill="#3D4A56" transform="translate(306,835)"/>
<path d="M0 0 C2.475 0.495 2.475 0.495 5 1 C5.0825 1.598125 5.165 2.19625 5.25 2.8125 C6.20455872 5.5966296 7.57132271 6.43311142 10 8 C8.02 8.66 6.04 9.32 4 10 C2 8.375 2 8.375 0 6 C-0.25 2.75 -0.25 2.75 0 0 Z " fill="#36454E" transform="translate(599,821)"/>
<path d="M0 0 C7.59 0 15.18 0 23 0 C23 0.33 23 0.66 23 1 C17.06 1.495 17.06 1.495 11 2 C11 2.66 11 3.32 11 4 C7.37 4 3.74 4 0 4 C0 2.68 0 1.36 0 0 Z " fill="#3C414D" transform="translate(341,816)"/>
<path d="M0 0 C0.66 0.33 1.32 0.66 2 1 C3.61037909 6.18899929 4.22541675 10.58999807 4 16 C3.34 16.33 2.68 16.66 2 17 C-0.1663492 10.91708727 -1.5197276 6.3552245 0 0 Z " fill="#323E46" transform="translate(227,823)"/>
<path d="M0 0 C0.99 0.33 1.98 0.66 3 1 C2.01 1.495 2.01 1.495 1 2 C1 2.99 1 3.98 1 5 C0.814375 6.010625 0.62875 7.02125 0.4375 8.0625 C-0.27626304 10.92588543 -0.27626304 10.92588543 1 13 C-2.875 11.125 -2.875 11.125 -4 10 C-4.3125 7.1875 -4.3125 7.1875 -4 4 C-2 1.625 -2 1.625 0 0 Z " fill="#343F4D" transform="translate(401,817)"/>
<path d="M0 0 C1.32 0 2.64 0 4 0 C4 3.3 4 6.6 4 10 C2.68 10 1.36 10 0 10 C0 6.7 0 3.4 0 0 Z " fill="#2E373E" transform="translate(379,816)"/>
<path d="M0 0 C1.91838221 2.87757332 2.58087101 4.62774981 3.3125 7.9375 C3.61607422 9.21947266 3.61607422 9.21947266 3.92578125 10.52734375 C4.01970476 13.65647965 3.07233541 14.73879352 1 17 C-0.53266582 13.93466836 -0.10276471 10.73245728 -0.0625 7.375 C-0.05798828 6.66859375 -0.05347656 5.9621875 -0.04882812 5.234375 C-0.03703875 3.48954725 -0.01910324 1.744763 0 0 Z " fill="#3C414A" transform="translate(676,122)"/>
<path d="M0 0 C0 0.99 0 1.98 0 3 C-5.68697571 3.91397824 -10.31302429 3.91397824 -16 3 C-16 2.34 -16 1.68 -16 1 C-13.89594609 0.83191581 -11.79175242 0.66558052 -9.6875 0.5 C-8.51574219 0.4071875 -7.34398437 0.314375 -6.13671875 0.21875 C-4.094806 0.07635011 -2.0468721 0 0 0 Z " fill="#242F3E" transform="translate(746,830)"/>
<path d="M0 0 C0.33 0 0.66 0 1 0 C1.33 3.96 1.66 7.92 2 12 C4.64 12 7.28 12 10 12 C10 12.33 10 12.66 10 13 C7.36 13 4.72 13 2 13 C1.67 16.96 1.34 20.92 1 25 C0.67 25 0.34 25 0 25 C0 16.75 0 8.5 0 0 Z " fill="#30434D" transform="translate(728,821)"/>
<path d="M0 0 C2.1875 -0.4375 2.1875 -0.4375 5 0 C6.98441782 2.13995327 8.5023304 4.50175965 10 7 C8.02 7 6.04 7 4 7 C2.02 3.535 2.02 3.535 0 0 Z " fill="#36434B" transform="translate(745,841)"/>
<path d="M0 0 C0.99 0.33 1.98 0.66 3 1 C3 1.66 3 2.32 3 3 C3.66 2.34 4.32 1.68 5 1 C7.6015625 0.8046875 7.6015625 0.8046875 10.625 0.875 C12.12933594 0.90207031 12.12933594 0.90207031 13.6640625 0.9296875 C14.43492187 0.95289063 15.20578125 0.97609375 16 1 C16 1.99 16 2.98 16 4 C11.05 4.33 6.1 4.66 1 5 C0.67 3.35 0.34 1.7 0 0 Z " fill="#23313E" transform="translate(307,834)"/>
<path d="M0 0 C1.04976964 3.14930893 1.10131595 5.38814456 1.0625 8.6875 C1.05347656 9.68136719 1.04445313 10.67523437 1.03515625 11.69921875 C1.02355469 12.45847656 1.01195312 13.21773437 1 14 C0.01 14.33 -0.98 14.66 -2 15 C-2.05406122 13.06280622 -2.09282025 11.12518079 -2.125 9.1875 C-2.14820313 8.10855469 -2.17140625 7.02960937 -2.1953125 5.91796875 C-2 3 -2 3 0 0 Z " fill="#2A3745" transform="translate(680,822)"/>
<path d="M0 0 C0.99 0 1.98 0 3 0 C3 4.62 3 9.24 3 14 C2.01 13.34 1.02 12.68 0 12 C-0.29296875 9.1796875 -0.29296875 9.1796875 -0.1875 5.875 C-0.16042969 4.77929688 -0.13335938 3.68359375 -0.10546875 2.5546875 C-0.07066406 1.71164062 -0.03585937 0.86859375 0 0 Z " fill="#2A3641" transform="translate(517,817)"/>
<path d="M0 0 C1.32 0.66 2.64 1.32 4 2 C3.01 3.98 2.02 5.96 1 8 C-0.32 8 -1.64 8 -3 8 C-3.36923077 3.44615385 -3.36923077 3.44615385 -1.5 1.1875 C-1.005 0.795625 -0.51 0.40375 0 0 Z " fill="#3E484F" transform="translate(808,817)"/>
<path d="M0 0 C-0.95262034 1.48285242 -1.91228405 2.96118201 -2.875 4.4375 C-3.40867187 5.26121094 -3.94234375 6.08492187 -4.4921875 6.93359375 C-6 9 -6 9 -8 10 C-8.22179212 6.74704886 -8.28601103 4.57202207 -6.8125 1.625 C-4.44407118 -0.49841894 -3.08690298 -0.13135757 0 0 Z " fill="#323E48" transform="translate(793,816)"/>
<path d="M0 0 C1.8871875 0.0309375 1.8871875 0.0309375 3.8125 0.0625 C3.8125 1.0525 3.8125 2.0425 3.8125 3.0625 C1.1725 3.0625 -1.4675 3.0625 -4.1875 3.0625 C-4.1875 3.7225 -4.1875 4.3825 -4.1875 5.0625 C-5.5075 4.7325 -6.8275 4.4025 -8.1875 4.0625 C-7.8575 3.0725 -7.5275 2.0825 -7.1875 1.0625 C-4.43671116 0.14557039 -2.82801087 -0.04636083 0 0 Z " fill="#4A565F" transform="translate(409.1875,814.9375)"/>
<path d="M0 0 C0.66 0 1.32 0 2 0 C2.66 2.64 3.32 5.28 4 8 C2.02 9.32 0.04 10.64 -2 12 C-1.34 8.04 -0.68 4.08 0 0 Z " fill="#CFD5DA" transform="translate(222,821)"/>
<path d="M0 0 C2.375 0.3125 2.375 0.3125 5 1 C7 4 7 4 6.75 6.125 C6 8 6 8 4 9 C0 2.25 0 2.25 0 0 Z " fill="#334049" transform="translate(414,831)"/>
<path d="M0 0 C1.32 0 2.64 0 4 0 C4.92844389 4.33273814 4.92844389 7.66726186 4 12 C2.09681116 9.14521674 1.5380901 7.58058692 0.875 4.3125 C0.70742187 3.50425781 0.53984375 2.69601562 0.3671875 1.86328125 C0.24601563 1.24839844 0.12484375 0.63351562 0 0 Z " fill="#2D3C43" transform="translate(203,816)"/>
<path d="M0 0 C0.66 0.33 1.32 0.66 2 1 C1.67 3.97 1.34 6.94 1 10 C0.01 10 -0.98 10 -2 10 C-2.25 3.375 -2.25 3.375 0 0 Z " fill="#39444F" transform="translate(217,833)"/>
<path d="M0 0 C0.99 0.33 1.98 0.66 3 1 C2.67 3.64 2.34 6.28 2 9 C0.68 9.33 -0.64 9.66 -2 10 C-1.85950482 8.52031676 -1.71245174 7.04125484 -1.5625 5.5625 C-1.48128906 4.73878906 -1.40007812 3.91507813 -1.31640625 3.06640625 C-1 1 -1 1 0 0 Z " fill="#31414E" transform="translate(235,835)"/>
<path d="M0 0 C0.33 1.32 0.66 2.64 1 4 C-2.63 4 -6.26 4 -10 4 C-9.34 3.67 -8.68 3.34 -8 3 C-8 2.34 -8 1.68 -8 1 C-5.36 0.67 -2.72 0.34 0 0 Z " fill="#394446" transform="translate(662,816)"/>
<path d="M0 0 C1.5625 1.25 1.5625 1.25 3 3 C2.6875 5.1875 2.6875 5.1875 2 7 C0.35 7 -1.3 7 -3 7 C-3 5.68 -3 4.36 -3 3 C-2.34 3 -1.68 3 -1 3 C-0.67 2.01 -0.34 1.02 0 0 Z " fill="#42515B" transform="translate(214,841)"/>
<path d="M0 0 C0.33 0 0.66 0 1 0 C1.144375 1.134375 1.28875 2.26875 1.4375 3.4375 C1.61171478 6.80777201 1.61171478 6.80777201 3 8 C4.34747084 8.23075082 5.70377565 8.41153063 7.0625 8.5625 C8.361875 8.706875 9.66125 8.85125 11 9 C11 9.33 11 9.66 11 10 C9.39667209 10.08121924 7.79215974 10.13929134 6.1875 10.1875 C5.29417969 10.22230469 4.40085937 10.25710938 3.48046875 10.29296875 C0.58352485 9.95081002 -0.22555028 9.24606427 -2 7 C-1.34 4.69 -0.68 2.38 0 0 Z " fill="#3E4A56" transform="translate(309,827)"/>
<path d="M0 0 C0 2.31 0 4.62 0 7 C0.66 7 1.32 7 2 7 C1.625 8.9375 1.625 8.9375 1 11 C0.01 11.495 0.01 11.495 -1 12 C-1 11.34 -1 10.68 -1 10 C-1.66 10 -2.32 10 -3 10 C-3 7.03 -3 4.06 -3 1 C-1 0 -1 0 0 0 Z " fill="#56636D" transform="translate(706,827)"/>
<path d="M0 0 C0 0.66 0 1.32 0 2 C0.99 2.66 1.98 3.32 3 4 C-0.96 4 -4.92 4 -9 4 C-8.67 3.01 -8.34 2.02 -8 1 C-5.29120665 -0.35439668 -2.99066732 -0.06501451 0 0 Z " fill="#444D5B" transform="translate(614,844)"/>
<path d="M0 0 C0.33 0 0.66 0 1 0 C0.67 2.31 0.34 4.62 0 7 C-1.65 7.33 -3.3 7.66 -5 8 C-5.33 7.34 -5.66 6.68 -6 6 C-5.34 6 -4.68 6 -4 6 C-3.67 4.68 -3.34 3.36 -3 2 C-2.34 2 -1.68 2 -1 2 C-0.67 1.34 -0.34 0.68 0 0 Z " fill="#4C5763" transform="translate(421,836)"/>
<path d="M0 0 C0.33 0 0.66 0 1 0 C1 4.95 1 9.9 1 15 C-0.32 14.67 -1.64 14.34 -3 14 C-2.67 13.67 -2.34 13.34 -2 13 C-1.95907063 10.66702567 -1.95758277 8.33294775 -2 6 C-1.67 6 -1.34 6 -1 6 C-0.67 4.02 -0.34 2.04 0 0 Z " fill="#3E4652" transform="translate(264,833)"/>
<path d="M0 0 C1.45792884 -0.05399736 2.91642712 -0.09279177 4.375 -0.125 C5.18710937 -0.14820313 5.99921875 -0.17140625 6.8359375 -0.1953125 C9 0 9 0 11 2 C10 3 10 3 7.93359375 3.09765625 C7.10988281 3.08605469 6.28617188 3.07445312 5.4375 3.0625 C4.61121094 3.05347656 3.78492188 3.04445313 2.93359375 3.03515625 C2.29550781 3.02355469 1.65742187 3.01195312 1 3 C0.67 2.01 0.34 1.02 0 0 Z " fill="#2B3641" transform="translate(689,816)"/>
<path d="M0 0 C-0.33 0.99 -0.66 1.98 -1 3 C-3.97 2.67 -6.94 2.34 -10 2 C-10 1.34 -10 0.68 -10 0 C-6.30581799 -1.231394 -3.7943739 -0.64432764 0 0 Z " fill="#2B3845" transform="translate(615,830)"/>
<path d="M0 0 C0.99 0.99 1.98 1.98 3 3 C3.99 2.67 4.98 2.34 6 2 C7.0625 3.875 7.0625 3.875 8 6 C7.67 6.66 7.34 7.32 7 8 C3.34683329 6.75023244 2.21934164 6.32901247 0 3 C0 2.01 0 1.02 0 0 Z " fill="#35404B" transform="translate(679,838)"/>
<path d="M0 0 C0.33 0 0.66 0 1 0 C1.33 1.98 1.66 3.96 2 6 C2.33 6 2.66 6 3 6 C3 8.31 3 10.62 3 13 C2.01 13 1.02 13 0 13 C0 8.71 0 4.42 0 0 Z " fill="#29343F" transform="translate(282,834)"/>
<path d="M0 0 C0.33 0 0.66 0 1 0 C1.39012425 1.76756294 1.7616098 3.53924783 2.125 5.3125 C2.33382812 6.29863281 2.54265625 7.28476562 2.7578125 8.30078125 C3 11 3 11 1 14 C-0.37562854 12.71034824 -1.70766393 11.37310707 -3 10 C-3 9.34 -3 8.68 -3 8 C-2.34 7.67 -1.68 7.34 -1 7 C-0.59270772 4.67843403 -0.25561323 2.3431213 0 0 Z " fill="#475360" transform="translate(681,829)"/>
<path d="M0 0 C1.5625 1.5625 1.5625 1.5625 3 4 C2.6875 7.75 2.6875 7.75 2 11 C0.68 10.34 -0.64 9.68 -2 9 C-1.34 6.03 -0.68 3.06 0 0 Z " fill="#4F5664" transform="translate(218,825)"/>
<path d="M0 0 C1.65 1.32 3.3 2.64 5 4 C4.67 5.65 4.34 7.3 4 9 C3.01 8.67 2.02 8.34 1 8 C0.67 5.36 0.34 2.72 0 0 Z " fill="#36424B" transform="translate(318,821)"/>
<path d="M0 0 C2.45823172 3.68734758 3.01242616 6.69699971 4 11 C1.33264727 8.51047079 -0.55746343 6.36591866 -2 3 C-1.34 2.01 -0.68 1.02 0 0 Z " fill="#C8D0D7" transform="translate(496,565)"/>
<path d="M0 0 C0.99 0.33 1.98 0.66 3 1 C2.42647107 4.87132028 0.51295648 7.08172796 -2 10 C-1.34 6.7 -0.68 3.4 0 0 Z " fill="#CDD5D9" transform="translate(527,566)"/>
<path d="M0 0 C0.61875 0.33 1.2375 0.66 1.875 1 C3.91018344 2.14193235 3.91018344 2.14193235 6 2 C5.67 3.98 5.34 5.96 5 8 C4.01 8 3.02 8 2 8 C1.34 5.36 0.68 2.72 0 0 Z " fill="#3F4D56" transform="translate(617,832)"/>
<path d="M0 0 C1.32 1.65 2.64 3.3 4 5 C3.01 5.99 2.02 6.98 1 8 C0.01 6.68 -0.98 5.36 -2 4 C-1.34 2.68 -0.68 1.36 0 0 Z " fill="#48555A" transform="translate(774,824)"/>
<path d="M0 0 C2.475 0.495 2.475 0.495 5 1 C5 2.32 5 3.64 5 5 C3 6.75 3 6.75 1 8 C-0.35439668 5.29120665 -0.06501451 2.99066732 0 0 Z " fill="#49555F" transform="translate(599,821)"/>
<path d="M0 0 C1.32 0.66 2.64 1.32 4 2 C3.34 3.65 2.68 5.3 2 7 C0.02 5.68 -1.96 4.36 -4 3 C-2.68 2.01 -1.36 1.02 0 0 Z " fill="#3E4954" transform="translate(700,817)"/>
<path d="M0 0 C0.99 1.32 1.98 2.64 3 4 C2.34 5.32 1.68 6.64 1 8 C0.67 6.68 0.34 5.36 0 4 C-0.66 4.66 -1.32 5.32 -2 6 C-2.66 5.67 -3.32 5.34 -4 5 C-4 4.01 -4 3.02 -4 2 C-2.68 1.34 -1.36 0.68 0 0 Z " fill="#535A65" transform="translate(319,818)"/>
<path d="M0 0 C1.32 0 2.64 0 4 0 C4.66 1.65 5.32 3.3 6 5 C4.35 5.33 2.7 5.66 1 6 C0.67 4.02 0.34 2.04 0 0 Z " fill="#3F4B55" transform="translate(598,837)"/>
<path d="M0 0 C1.80411967 2.75924185 2.0127245 3.88972103 1.625 7.25 C1.41875 8.1575 1.2125 9.065 1 10 C-0.32 8.68 -1.64 7.36 -3 6 C-2.34 5.67 -1.68 5.34 -1 5 C-0.34444881 2.47266765 -0.34444881 2.47266765 0 0 Z " fill="#E2E8EA" transform="translate(494,558)"/>
<path d="M0 0 C2.72426311 2.35277269 3.8141763 4.62496331 5 8 C1.125 7.125 1.125 7.125 0 6 C-0.04080783 4.00041636 -0.04254356 1.99954746 0 0 Z " fill="#DEE3E9" transform="translate(343,242)"/>
<path d="M0 0 C0.99 0 1.98 0 3 0 C3 1.65 3 3.3 3 5 C2.34 5 1.68 5 1 5 C1 6.65 1 8.3 1 10 C0.67 10 0.34 10 0 10 C0 6.7 0 3.4 0 0 Z " fill="#58626A" transform="translate(379,816)"/>
<path d="M0 0 C-0.33 2.64 -0.66 5.28 -1 8 C-1.66 7.67 -2.32 7.34 -3 7 C-3.625 3.9375 -3.625 3.9375 -4 1 C-2 0 -2 0 0 0 Z " fill="#E3E9EA" transform="translate(514,549)"/>
<path d="M0 0 C0.33 0.99 0.66 1.98 1 3 C-0.62339805 4.70884005 -2.29319053 6.37446717 -4 8 C-4.66 8 -5.32 8 -6 8 C-4.55746343 4.63408134 -2.66735273 2.48952921 0 0 Z " fill="#27323E" transform="translate(556,539)"/>
<path d="M0 0 C0.33 0 0.66 0 1 0 C1.33 2.97 1.66 5.94 2 9 C-0.475 8.01 -0.475 8.01 -3 7 C-3 6.01 -3 5.02 -3 4 C-2.01 4 -1.02 4 0 4 C0 2.68 0 1.36 0 0 Z " fill="#545F6A" transform="translate(210,828)"/>
<path d="M0 0 C0.66 0 1.32 0 2 0 C2 1.98 2 3.96 2 6 C0.68 6.33 -0.64 6.66 -2 7 C-2.33 6.34 -2.66 5.68 -3 5 C-2.34 4.67 -1.68 4.34 -1 4 C-0.34786708 1.97536745 -0.34786708 1.97536745 0 0 Z " fill="#444E58" transform="translate(823,821)"/>
<path d="M0 0 C1.65 0 3.3 0 5 0 C4.67 1.32 4.34 2.64 4 4 C2.68 4 1.36 4 0 4 C0 2.68 0 1.36 0 0 Z " fill="#373A4B" transform="translate(221,816)"/>
<path d="M0 0 C6.4 -0.36923077 6.4 -0.36923077 9.4375 1.5 C9.953125 1.995 10.46875 2.49 11 3 C10.01 3 9.02 3 8 3 C8 3.66 8 4.32 8 5 C6 4 6 4 5 2 C2.47266765 1.34444881 2.47266765 1.34444881 0 1 C0 0.67 0 0.34 0 0 Z " fill="#616C73" transform="translate(608,815)"/>
<path d="M0 0 C0.66 0.99 1.32 1.98 2 3 C0.02 5.97 0.02 5.97 -2 9 C-2.66 8.67 -3.32 8.34 -4 8 C-2.68 5.36 -1.36 2.72 0 0 Z " fill="#3E4654" transform="translate(659,319)"/>
<path d="M0 0 C0.89694794 3.58779175 1.08304117 6.34618837 1 10 C0.01 10 -0.98 10 -2 10 C-1.34 6.7 -0.68 3.4 0 0 Z " fill="#525B65" transform="translate(346,125)"/>
<path d="M0 0 C-1.36983503 3.16115776 -1.9890638 3.9927092 -5 6 C-5 3 -5 3 -3.625 1.3125 C-2 0 -2 0 0 0 Z " fill="#3D4754" transform="translate(576,450)"/>
<path d="M0 0 C0.33 0 0.66 0 1 0 C1.125 2.875 1.125 2.875 1 6 C0.34 6.66 -0.32 7.32 -1 8 C-1.625 5.125 -1.625 5.125 -2 2 C-1.34 1.34 -0.68 0.68 0 0 Z " fill="#303344" transform="translate(221,821)"/>
</svg>
